# xmcd CD database file
#
# Track frame offsets:
#	150
#	20836
#	38434
#	54317
#	70349
#	90812
#	115870
#	133431
#	156805
#	183061
#
# Disc length: 2752 seconds
#
# Revision: 0
# Processed by: cddbd v1.5.2PL0 Copyright (c) Steve Scherf et al.
# Submitted via: CDex 1.51
#
DISCID=790abe0a
DTITLE=Charmain Bailey - As The World Awaits
DYEAR=2009
DGENRE=Jazz
TTITLE0=Love Immensely
TTITLE1=Prayer for My Children
TTITLE2=Love Transcends Light
TTITLE3=Romance Me Baby
TTITLE4=Alors que le Monde Attend
TTITLE5=Antigua
TTITLE6=Cry for Me
TTITLE7=As the World Awaits
TTITLE8=Love Transcends Light
TTITLE9=As The World Awaits
EXTD=YEAR: 2009
EXTT0=
EXTT1=
EXTT2=
EXTT3=
EXTT4=
EXTT5=
EXTT6=
EXTT7=
EXTT8=
EXTT9=
PLAYORDER=
